<svg width="1440" height="161" viewBox="0 0 1440 161" fill="none" xmlns="http://www.w3.org/2000/svg">
<rect width="1440" height="161" fill="#19126B"/>
<path d="M1032.77 86.1818C1031.95 86.1818 1031.25 85.9886 1030.66 85.6023C1030.07 85.2159 1029.61 84.6837 1029.3 84.0057C1028.98 83.3277 1028.82 82.553 1028.82 81.6818C1028.82 80.7955 1028.98 80.0133 1029.31 79.3352C1029.64 78.6534 1030.09 78.1212 1030.68 77.7386C1031.27 77.3523 1031.96 77.1591 1032.75 77.1591C1033.36 77.1591 1033.92 77.2727 1034.41 77.5C1034.9 77.7273 1035.3 78.0455 1035.62 78.4545C1035.93 78.8636 1036.13 79.3409 1036.2 79.8864H1034.86C1034.76 79.4886 1034.53 79.1364 1034.18 78.8295C1033.83 78.5189 1033.36 78.3636 1032.77 78.3636C1032.25 78.3636 1031.79 78.5 1031.4 78.7727C1031.01 79.0417 1030.7 79.4223 1030.48 79.9148C1030.27 80.4034 1030.16 80.9773 1030.16 81.6364C1030.16 82.3106 1030.27 82.8977 1030.48 83.3977C1030.69 83.8977 1031 84.286 1031.39 84.5625C1031.78 84.839 1032.24 84.9773 1032.77 84.9773C1033.12 84.9773 1033.44 84.9167 1033.72 84.7955C1034.01 84.6742 1034.25 84.5 1034.44 84.2727C1034.64 84.0455 1034.78 83.7727 1034.86 83.4545H1036.2C1036.13 83.9697 1035.94 84.4337 1035.64 84.8466C1035.35 85.2557 1034.95 85.5814 1034.47 85.8239C1033.98 86.0625 1033.42 86.1818 1032.77 86.1818ZM1041.71 86.1818C1040.92 86.1818 1040.23 85.9943 1039.64 85.6193C1039.05 85.2443 1038.58 84.7197 1038.25 84.0455C1037.92 83.3712 1037.76 82.5833 1037.76 81.6818C1037.76 80.7727 1037.92 79.9792 1038.25 79.3011C1038.58 78.6231 1039.05 78.0966 1039.64 77.7216C1040.23 77.3466 1040.92 77.1591 1041.71 77.1591C1042.5 77.1591 1043.19 77.3466 1043.78 77.7216C1044.37 78.0966 1044.84 78.6231 1045.16 79.3011C1045.5 79.9792 1045.66 80.7727 1045.66 81.6818C1045.66 82.5833 1045.5 83.3712 1045.16 84.0455C1044.84 84.7197 1044.37 85.2443 1043.78 85.6193C1043.19 85.9943 1042.5 86.1818 1041.71 86.1818ZM1041.71 84.9773C1042.31 84.9773 1042.8 84.8239 1043.19 84.517C1043.57 84.2102 1043.86 83.8068 1044.05 83.3068C1044.23 82.8068 1044.32 82.2652 1044.32 81.6818C1044.32 81.0985 1044.23 80.5549 1044.05 80.0511C1043.86 79.5473 1043.57 79.1402 1043.19 78.8295C1042.8 78.5189 1042.31 78.3636 1041.71 78.3636C1041.11 78.3636 1040.62 78.5189 1040.23 78.8295C1039.85 79.1402 1039.56 79.5473 1039.38 80.0511C1039.19 80.5549 1039.1 81.0985 1039.1 81.6818C1039.1 82.2652 1039.19 82.8068 1039.38 83.3068C1039.56 83.8068 1039.85 84.2102 1040.23 84.517C1040.62 84.8239 1041.11 84.9773 1041.71 84.9773ZM1047.71 89.2727V77.2727H1049.01V78.6591H1049.17C1049.26 78.5076 1049.4 78.3144 1049.58 78.0795C1049.75 77.8409 1050.01 77.6288 1050.34 77.4432C1050.67 77.2538 1051.12 77.1591 1051.69 77.1591C1052.42 77.1591 1053.07 77.3428 1053.63 77.7102C1054.19 78.0777 1054.63 78.5985 1054.94 79.2727C1055.26 79.947 1055.42 80.7424 1055.42 81.6591C1055.42 82.5833 1055.26 83.3845 1054.94 84.0625C1054.63 84.7367 1054.19 85.2595 1053.64 85.6307C1053.08 85.9981 1052.44 86.1818 1051.71 86.1818C1051.15 86.1818 1050.7 86.089 1050.37 85.9034C1050.03 85.714 1049.77 85.5 1049.59 85.2614C1049.4 85.0189 1049.26 84.8182 1049.17 84.6591H1049.05V89.2727H1047.71ZM1049.03 81.6364C1049.03 82.2955 1049.13 82.8769 1049.32 83.3807C1049.51 83.8807 1049.79 84.2727 1050.17 84.5568C1050.54 84.8371 1050.99 84.9773 1051.53 84.9773C1052.09 84.9773 1052.56 84.8295 1052.93 84.5341C1053.31 84.2348 1053.6 83.8333 1053.79 83.3295C1053.98 82.822 1054.08 82.2576 1054.08 81.6364C1054.08 81.0227 1053.98 80.4697 1053.79 79.9773C1053.61 79.4811 1053.32 79.089 1052.94 78.8011C1052.57 78.5095 1052.1 78.3636 1051.53 78.3636C1050.98 78.3636 1050.53 78.5019 1050.15 78.7784C1049.78 79.0511 1049.5 79.4337 1049.31 79.9261C1049.12 80.4148 1049.03 80.9848 1049.03 81.6364ZM1058.01 89.2727C1057.79 89.2727 1057.58 89.2538 1057.4 89.2159C1057.23 89.1818 1057.1 89.1477 1057.04 89.1136L1057.38 87.9318C1057.7 88.0152 1057.99 88.0455 1058.24 88.0227C1058.49 88 1058.71 87.8883 1058.9 87.6875C1059.1 87.4905 1059.28 87.1705 1059.44 86.7273L1059.69 86.0455L1056.47 77.2727H1057.92L1060.33 84.2273H1060.42L1062.83 77.2727H1064.29L1060.58 87.2727C1060.41 87.7235 1060.21 88.0966 1059.96 88.392C1059.72 88.6913 1059.43 88.9129 1059.1 89.0568C1058.78 89.2008 1058.42 89.2727 1058.01 89.2727ZM1066.06 86V77.2727H1067.35V78.5909H1067.44C1067.6 78.1591 1067.89 77.8087 1068.31 77.5398C1068.72 77.2708 1069.19 77.1364 1069.71 77.1364C1069.81 77.1364 1069.94 77.1383 1070.08 77.142C1070.23 77.1458 1070.34 77.1515 1070.42 77.1591V78.5227C1070.37 78.5114 1070.27 78.4943 1070.11 78.4716C1069.95 78.4451 1069.78 78.4318 1069.6 78.4318C1069.18 78.4318 1068.8 78.5208 1068.46 78.6989C1068.13 78.8731 1067.87 79.1155 1067.68 79.4261C1067.49 79.733 1067.4 80.0833 1067.4 80.4773V86H1066.06ZM1072.01 86V77.2727H1073.35V86H1072.01ZM1072.69 75.8182C1072.43 75.8182 1072.2 75.7292 1072.01 75.5511C1071.83 75.3731 1071.74 75.1591 1071.74 74.9091C1071.74 74.6591 1071.83 74.4451 1072.01 74.267C1072.2 74.089 1072.43 74 1072.69 74C1072.95 74 1073.18 74.089 1073.36 74.267C1073.55 74.4451 1073.64 74.6591 1073.64 74.9091C1073.64 75.1591 1073.55 75.3731 1073.36 75.5511C1073.18 75.7292 1072.95 75.8182 1072.69 75.8182ZM1079.33 89.4545C1078.68 89.4545 1078.12 89.3712 1077.66 89.2045C1077.19 89.0417 1076.8 88.8258 1076.49 88.5568C1076.19 88.2917 1075.94 88.0076 1075.76 87.7045L1076.83 86.9545C1076.95 87.1136 1077.1 87.2955 1077.29 87.5C1077.47 87.7083 1077.73 87.8883 1078.05 88.0398C1078.38 88.1951 1078.8 88.2727 1079.33 88.2727C1080.03 88.2727 1080.61 88.1023 1081.07 87.7614C1081.53 87.4205 1081.76 86.8864 1081.76 86.1591V84.3864H1081.65C1081.55 84.5455 1081.41 84.7424 1081.23 84.9773C1081.05 85.2083 1080.79 85.4148 1080.45 85.5966C1080.12 85.7746 1079.67 85.8636 1079.1 85.8636C1078.4 85.8636 1077.76 85.697 1077.2 85.3636C1076.65 85.0303 1076.21 84.5455 1075.88 83.9091C1075.56 83.2727 1075.4 82.5 1075.4 81.5909C1075.4 80.697 1075.55 79.9186 1075.87 79.2557C1076.18 78.589 1076.62 78.0739 1077.18 77.7102C1077.74 77.3428 1078.39 77.1591 1079.12 77.1591C1079.69 77.1591 1080.14 77.2538 1080.48 77.4432C1080.81 77.6288 1081.07 77.8409 1081.25 78.0795C1081.43 78.3144 1081.57 78.5076 1081.67 78.6591H1081.81V77.2727H1083.1V86.25C1083.1 87 1082.93 87.6098 1082.59 88.0795C1082.25 88.553 1081.8 88.8996 1081.23 89.1193C1080.66 89.3428 1080.03 89.4545 1079.33 89.4545ZM1079.28 84.6591C1079.82 84.6591 1080.28 84.536 1080.65 84.2898C1081.02 84.0436 1081.3 83.6894 1081.49 83.2273C1081.69 82.7652 1081.78 82.2121 1081.78 81.5682C1081.78 80.9394 1081.69 80.3845 1081.5 79.9034C1081.31 79.4223 1081.03 79.0455 1080.66 78.7727C1080.29 78.5 1079.83 78.3636 1079.28 78.3636C1078.71 78.3636 1078.24 78.5076 1077.86 78.7955C1077.49 79.0833 1077.21 79.4697 1077.02 79.9545C1076.83 80.4394 1076.74 80.9773 1076.74 81.5682C1076.74 82.1742 1076.83 82.7102 1077.02 83.1761C1077.21 83.6383 1077.5 84.0019 1077.87 84.267C1078.25 84.5284 1078.72 84.6591 1079.28 84.6591ZM1086.9 80.75V86H1085.56V74.3636H1086.9V78.6364H1087.01C1087.21 78.1856 1087.52 77.8277 1087.93 77.5625C1088.34 77.2936 1088.89 77.1591 1089.58 77.1591C1090.17 77.1591 1090.69 77.2784 1091.14 77.517C1091.59 77.7519 1091.93 78.1136 1092.18 78.6023C1092.43 79.0871 1092.56 79.7045 1092.56 80.4545V86H1091.21V80.5455C1091.21 79.8523 1091.03 79.3163 1090.67 78.9375C1090.32 78.5549 1089.82 78.3636 1089.19 78.3636C1088.75 78.3636 1088.36 78.4564 1088.01 78.642C1087.67 78.8277 1087.39 79.0985 1087.19 79.4545C1086.99 79.8106 1086.9 80.2424 1086.9 80.75ZM1098.8 77.2727V78.4091H1094.28V77.2727H1098.8ZM1095.6 75.1818H1096.94V83.5C1096.94 83.8788 1097 84.1629 1097.11 84.3523C1097.22 84.5379 1097.36 84.6629 1097.54 84.7273C1097.71 84.7879 1097.9 84.8182 1098.1 84.8182C1098.25 84.8182 1098.37 84.8106 1098.46 84.7955C1098.56 84.7765 1098.63 84.7614 1098.69 84.75L1098.96 85.9545C1098.87 85.9886 1098.75 86.0227 1098.58 86.0568C1098.42 86.0947 1098.21 86.1136 1097.96 86.1136C1097.58 86.1136 1097.21 86.0322 1096.85 85.8693C1096.49 85.7064 1096.19 85.4583 1095.95 85.125C1095.72 84.7917 1095.6 84.3712 1095.6 83.8636V75.1818ZM1105.5 86V74.3636H1106.91V84.75H1112.32V86H1105.5ZM1117.87 86.1818C1117.08 86.1818 1116.39 85.9943 1115.79 85.6193C1115.2 85.2443 1114.74 84.7197 1114.41 84.0455C1114.08 83.3712 1113.91 82.5833 1113.91 81.6818C1113.91 80.7727 1114.08 79.9792 1114.41 79.3011C1114.74 78.6231 1115.2 78.0966 1115.79 77.7216C1116.39 77.3466 1117.08 77.1591 1117.87 77.1591C1118.65 77.1591 1119.34 77.3466 1119.93 77.7216C1120.53 78.0966 1120.99 78.6231 1121.32 79.3011C1121.65 79.9792 1121.82 80.7727 1121.82 81.6818C1121.82 82.5833 1121.65 83.3712 1121.32 84.0455C1120.99 84.7197 1120.53 85.2443 1119.93 85.6193C1119.34 85.9943 1118.65 86.1818 1117.87 86.1818ZM1117.87 84.9773C1118.46 84.9773 1118.96 84.8239 1119.34 84.517C1119.73 84.2102 1120.02 83.8068 1120.2 83.3068C1120.39 82.8068 1120.48 82.2652 1120.48 81.6818C1120.48 81.0985 1120.39 80.5549 1120.2 80.0511C1120.02 79.5473 1119.73 79.1402 1119.34 78.8295C1118.96 78.5189 1118.46 78.3636 1117.87 78.3636C1117.27 78.3636 1116.78 78.5189 1116.39 78.8295C1116 79.1402 1115.72 79.5473 1115.53 80.0511C1115.35 80.5549 1115.25 81.0985 1115.25 81.6818C1115.25 82.2652 1115.35 82.8068 1115.53 83.3068C1115.72 83.8068 1116 84.2102 1116.39 84.517C1116.78 84.8239 1117.27 84.9773 1117.87 84.9773ZM1123.87 86V77.2727H1125.16V78.5909H1125.25C1125.41 78.1591 1125.7 77.8087 1126.12 77.5398C1126.53 77.2708 1127 77.1364 1127.53 77.1364C1127.63 77.1364 1127.75 77.1383 1127.9 77.142C1128.04 77.1458 1128.16 77.1515 1128.23 77.1591V78.5227C1128.19 78.5114 1128.08 78.4943 1127.92 78.4716C1127.76 78.4451 1127.59 78.4318 1127.41 78.4318C1126.99 78.4318 1126.61 78.5208 1126.28 78.6989C1125.95 78.8731 1125.69 79.1155 1125.49 79.4261C1125.3 79.733 1125.21 80.0833 1125.21 80.4773V86H1123.87ZM1133.21 86.1818C1132.37 86.1818 1131.65 85.9962 1131.04 85.625C1130.43 85.25 1129.96 84.7273 1129.63 84.0568C1129.31 83.3826 1129.15 82.5985 1129.15 81.7045C1129.15 80.8106 1129.31 80.0227 1129.63 79.3409C1129.96 78.6553 1130.42 78.1212 1131.01 77.7386C1131.6 77.3523 1132.29 77.1591 1133.08 77.1591C1133.53 77.1591 1133.98 77.2348 1134.42 77.3864C1134.87 77.5379 1135.27 77.7841 1135.63 78.125C1136 78.4621 1136.29 78.9091 1136.5 79.4659C1136.72 80.0227 1136.83 80.7083 1136.83 81.5227V82.0909H1130.1V80.9318H1135.46C1135.46 80.4394 1135.37 80 1135.17 79.6136C1134.98 79.2273 1134.7 78.9223 1134.34 78.6989C1133.98 78.4754 1133.56 78.3636 1133.08 78.3636C1132.54 78.3636 1132.08 78.4962 1131.69 78.7614C1131.31 79.0227 1131.01 79.3636 1130.8 79.7841C1130.59 80.2045 1130.49 80.6553 1130.49 81.1364V81.9091C1130.49 82.5682 1130.6 83.1269 1130.83 83.5852C1131.06 84.0398 1131.38 84.3864 1131.79 84.625C1132.2 84.8598 1132.67 84.9773 1133.21 84.9773C1133.57 84.9773 1133.88 84.928 1134.17 84.8295C1134.46 84.7273 1134.71 84.5758 1134.91 84.375C1135.12 84.1705 1135.28 83.9167 1135.4 83.6136L1136.69 83.9773C1136.56 84.4167 1136.33 84.803 1136 85.1364C1135.68 85.4659 1135.28 85.7235 1134.81 85.9091C1134.34 86.0909 1133.81 86.1818 1133.21 86.1818ZM1138.87 86V77.2727H1140.16V78.6364H1140.28C1140.46 78.1705 1140.75 77.8087 1141.16 77.5511C1141.56 77.2898 1142.05 77.1591 1142.62 77.1591C1143.19 77.1591 1143.67 77.2898 1144.06 77.5511C1144.44 77.8087 1144.74 78.1705 1144.96 78.6364H1145.05C1145.27 78.1856 1145.61 77.8277 1146.06 77.5625C1146.5 77.2936 1147.04 77.1591 1147.66 77.1591C1148.44 77.1591 1149.08 77.4034 1149.58 77.892C1150.07 78.3769 1150.32 79.1326 1150.32 80.1591V86H1148.98V80.1591C1148.98 79.5152 1148.81 79.0549 1148.45 78.7784C1148.1 78.5019 1147.69 78.3636 1147.21 78.3636C1146.6 78.3636 1146.12 78.5492 1145.78 78.9205C1145.45 79.2879 1145.28 79.7538 1145.28 80.3182V86H1143.91V80.0227C1143.91 79.5265 1143.75 79.1269 1143.43 78.8239C1143.11 78.517 1142.69 78.3636 1142.19 78.3636C1141.84 78.3636 1141.51 78.4564 1141.21 78.642C1140.91 78.8277 1140.67 79.0852 1140.48 79.4148C1140.3 79.7405 1140.21 80.1174 1140.21 80.5455V86H1138.87ZM1157.27 86V77.2727H1158.62V86H1157.27ZM1157.96 75.8182C1157.69 75.8182 1157.47 75.7292 1157.28 75.5511C1157.09 75.3731 1157 75.1591 1157 74.9091C1157 74.6591 1157.09 74.4451 1157.28 74.267C1157.47 74.089 1157.69 74 1157.96 74C1158.22 74 1158.44 74.089 1158.63 74.267C1158.82 74.4451 1158.91 74.6591 1158.91 74.9091C1158.91 75.1591 1158.82 75.3731 1158.63 75.5511C1158.44 75.7292 1158.22 75.8182 1157.96 75.8182ZM1161.07 89.2727V77.2727H1162.37V78.6591H1162.53C1162.62 78.5076 1162.76 78.3144 1162.93 78.0795C1163.11 77.8409 1163.37 77.6288 1163.7 77.4432C1164.03 77.2538 1164.48 77.1591 1165.05 77.1591C1165.78 77.1591 1166.43 77.3428 1166.99 77.7102C1167.55 78.0777 1167.99 78.5985 1168.3 79.2727C1168.62 79.947 1168.78 80.7424 1168.78 81.6591C1168.78 82.5833 1168.62 83.3845 1168.3 84.0625C1167.99 84.7367 1167.55 85.2595 1167 85.6307C1166.44 85.9981 1165.8 86.1818 1165.07 86.1818C1164.51 86.1818 1164.06 86.089 1163.72 85.9034C1163.39 85.714 1163.13 85.5 1162.95 85.2614C1162.76 85.0189 1162.62 84.8182 1162.53 84.6591H1162.41V89.2727H1161.07ZM1162.39 81.6364C1162.39 82.2955 1162.49 82.8769 1162.68 83.3807C1162.87 83.8807 1163.15 84.2727 1163.53 84.5568C1163.9 84.8371 1164.35 84.9773 1164.89 84.9773C1165.45 84.9773 1165.92 84.8295 1166.29 84.5341C1166.67 84.2348 1166.96 83.8333 1167.14 83.3295C1167.34 82.822 1167.43 82.2576 1167.43 81.6364C1167.43 81.0227 1167.34 80.4697 1167.15 79.9773C1166.96 79.4811 1166.68 79.089 1166.3 78.8011C1165.93 78.5095 1165.46 78.3636 1164.89 78.3636C1164.34 78.3636 1163.89 78.5019 1163.51 78.7784C1163.14 79.0511 1162.86 79.4337 1162.67 79.9261C1162.48 80.4148 1162.39 80.9848 1162.39 81.6364ZM1177 79.2273L1175.8 79.5682C1175.72 79.3674 1175.61 79.1723 1175.46 78.983C1175.32 78.7898 1175.12 78.6307 1174.87 78.5057C1174.62 78.3807 1174.3 78.3182 1173.91 78.3182C1173.38 78.3182 1172.93 78.4413 1172.58 78.6875C1172.22 78.9299 1172.05 79.2386 1172.05 79.6136C1172.05 79.947 1172.17 80.2102 1172.41 80.4034C1172.65 80.5966 1173.03 80.7576 1173.55 80.8864L1174.84 81.2045C1175.62 81.3939 1176.21 81.6837 1176.59 82.0739C1176.97 82.4602 1177.16 82.9583 1177.16 83.5682C1177.16 84.0682 1177.02 84.5152 1176.73 84.9091C1176.45 85.303 1176.05 85.6136 1175.54 85.8409C1175.03 86.0682 1174.43 86.1818 1173.75 86.1818C1172.86 86.1818 1172.13 85.9886 1171.54 85.6023C1170.96 85.2159 1170.59 84.6515 1170.43 83.9091L1171.71 83.5909C1171.83 84.0606 1172.06 84.4129 1172.39 84.6477C1172.74 84.8826 1173.18 85 1173.73 85C1174.36 85 1174.85 84.8674 1175.22 84.6023C1175.59 84.3333 1175.78 84.0114 1175.78 83.6364C1175.78 83.3333 1175.67 83.0795 1175.46 82.875C1175.25 82.6667 1174.92 82.5114 1174.48 82.4091L1173.03 82.0682C1172.23 81.8788 1171.64 81.5852 1171.26 81.1875C1170.89 80.786 1170.71 80.2841 1170.71 79.6818C1170.71 79.1894 1170.85 78.7538 1171.12 78.375C1171.4 77.9962 1171.78 77.6989 1172.26 77.483C1172.75 77.267 1173.3 77.1591 1173.91 77.1591C1174.78 77.1591 1175.45 77.3485 1175.95 77.7273C1176.44 78.1061 1176.79 78.6061 1177 79.2273ZM1184.68 82.4318V77.2727H1186.02V86H1184.68V84.5227H1184.59C1184.38 84.9659 1184.07 85.3428 1183.63 85.6534C1183.2 85.9602 1182.66 86.1136 1182 86.1136C1181.45 86.1136 1180.97 85.9943 1180.54 85.7557C1180.12 85.5133 1179.79 85.1496 1179.54 84.6648C1179.3 84.1761 1179.18 83.5606 1179.18 82.8182V77.2727H1180.52V82.7273C1180.52 83.3636 1180.7 83.8712 1181.06 84.25C1181.42 84.6288 1181.87 84.8182 1182.43 84.8182C1182.76 84.8182 1183.1 84.733 1183.45 84.5625C1183.8 84.392 1184.09 84.1307 1184.32 83.7784C1184.56 83.4261 1184.68 82.9773 1184.68 82.4318ZM1188.48 86V77.2727H1189.77V78.6364H1189.89C1190.07 78.1705 1190.36 77.8087 1190.77 77.5511C1191.17 77.2898 1191.66 77.1591 1192.23 77.1591C1192.8 77.1591 1193.28 77.2898 1193.66 77.5511C1194.05 77.8087 1194.35 78.1705 1194.57 78.6364H1194.66C1194.88 78.1856 1195.22 77.8277 1195.66 77.5625C1196.11 77.2936 1196.65 77.1591 1197.27 77.1591C1198.05 77.1591 1198.69 77.4034 1199.19 77.892C1199.68 78.3769 1199.93 79.1326 1199.93 80.1591V86H1198.59V80.1591C1198.59 79.5152 1198.41 79.0549 1198.06 78.7784C1197.71 78.5019 1197.3 78.3636 1196.82 78.3636C1196.2 78.3636 1195.73 78.5492 1195.39 78.9205C1195.05 79.2879 1194.89 79.7538 1194.89 80.3182V86H1193.52V80.0227C1193.52 79.5265 1193.36 79.1269 1193.04 78.8239C1192.72 78.517 1192.3 78.3636 1191.8 78.3636C1191.45 78.3636 1191.12 78.4564 1190.82 78.642C1190.52 78.8277 1190.28 79.0852 1190.09 79.4148C1189.91 79.7405 1189.82 80.1174 1189.82 80.5455V86H1188.48ZM1210.18 86.1818C1209.45 86.1818 1208.81 85.9981 1208.25 85.6307C1207.7 85.2595 1207.26 84.7367 1206.95 84.0625C1206.63 83.3845 1206.47 82.5833 1206.47 81.6591C1206.47 80.7424 1206.63 79.947 1206.95 79.2727C1207.26 78.5985 1207.7 78.0777 1208.26 77.7102C1208.82 77.3428 1209.47 77.1591 1210.2 77.1591C1210.77 77.1591 1211.22 77.2538 1211.55 77.4432C1211.88 77.6288 1212.14 77.8409 1212.31 78.0795C1212.49 78.3144 1212.63 78.5076 1212.72 78.6591H1212.84V74.3636H1214.18V86H1212.88V84.6591H1212.72C1212.63 84.8182 1212.49 85.0189 1212.3 85.2614C1212.12 85.5 1211.86 85.714 1211.53 85.9034C1211.19 86.089 1210.74 86.1818 1210.18 86.1818ZM1210.36 84.9773C1210.9 84.9773 1211.35 84.8371 1211.72 84.5568C1212.1 84.2727 1212.38 83.8807 1212.57 83.3807C1212.76 82.8769 1212.86 82.2955 1212.86 81.6364C1212.86 80.9848 1212.77 80.4148 1212.58 79.9261C1212.39 79.4337 1212.11 79.0511 1211.74 78.7784C1211.36 78.5019 1210.91 78.3636 1210.36 78.3636C1209.79 78.3636 1209.32 78.5095 1208.94 78.8011C1208.57 79.089 1208.28 79.4811 1208.09 79.9773C1207.91 80.4697 1207.82 81.0227 1207.82 81.6364C1207.82 82.2576 1207.91 82.822 1208.1 83.3295C1208.29 83.8333 1208.58 84.2348 1208.95 84.5341C1209.33 84.8295 1209.8 84.9773 1210.36 84.9773ZM1220.37 86.1818C1219.58 86.1818 1218.89 85.9943 1218.29 85.6193C1217.7 85.2443 1217.24 84.7197 1216.91 84.0455C1216.58 83.3712 1216.41 82.5833 1216.41 81.6818C1216.41 80.7727 1216.58 79.9792 1216.91 79.3011C1217.24 78.6231 1217.7 78.0966 1218.29 77.7216C1218.89 77.3466 1219.58 77.1591 1220.37 77.1591C1221.15 77.1591 1221.84 77.3466 1222.43 77.7216C1223.03 78.0966 1223.49 78.6231 1223.82 79.3011C1224.15 79.9792 1224.32 80.7727 1224.32 81.6818C1224.32 82.5833 1224.15 83.3712 1223.82 84.0455C1223.49 84.7197 1223.03 85.2443 1222.43 85.6193C1221.84 85.9943 1221.15 86.1818 1220.37 86.1818ZM1220.37 84.9773C1220.96 84.9773 1221.46 84.8239 1221.84 84.517C1222.23 84.2102 1222.52 83.8068 1222.7 83.3068C1222.89 82.8068 1222.98 82.2652 1222.98 81.6818C1222.98 81.0985 1222.89 80.5549 1222.7 80.0511C1222.52 79.5473 1222.23 79.1402 1221.84 78.8295C1221.46 78.5189 1220.96 78.3636 1220.37 78.3636C1219.77 78.3636 1219.28 78.5189 1218.89 78.8295C1218.5 79.1402 1218.22 79.5473 1218.03 80.0511C1217.85 80.5549 1217.75 81.0985 1217.75 81.6818C1217.75 82.2652 1217.85 82.8068 1218.03 83.3068C1218.22 83.8068 1218.5 84.2102 1218.89 84.517C1219.28 84.8239 1219.77 84.9773 1220.37 84.9773ZM1227.71 74.3636V86H1226.37V74.3636H1227.71ZM1233.71 86.1818C1232.92 86.1818 1232.23 85.9943 1231.64 85.6193C1231.05 85.2443 1230.58 84.7197 1230.25 84.0455C1229.92 83.3712 1229.76 82.5833 1229.76 81.6818C1229.76 80.7727 1229.92 79.9792 1230.25 79.3011C1230.58 78.6231 1231.05 78.0966 1231.64 77.7216C1232.23 77.3466 1232.92 77.1591 1233.71 77.1591C1234.5 77.1591 1235.19 77.3466 1235.78 77.7216C1236.37 78.0966 1236.84 78.6231 1237.16 79.3011C1237.5 79.9792 1237.66 80.7727 1237.66 81.6818C1237.66 82.5833 1237.5 83.3712 1237.16 84.0455C1236.84 84.7197 1236.37 85.2443 1235.78 85.6193C1235.19 85.9943 1234.5 86.1818 1233.71 86.1818ZM1233.71 84.9773C1234.31 84.9773 1234.8 84.8239 1235.19 84.517C1235.57 84.2102 1235.86 83.8068 1236.05 83.3068C1236.23 82.8068 1236.32 82.2652 1236.32 81.6818C1236.32 81.0985 1236.23 80.5549 1236.05 80.0511C1235.86 79.5473 1235.57 79.1402 1235.19 78.8295C1234.8 78.5189 1234.31 78.3636 1233.71 78.3636C1233.11 78.3636 1232.62 78.5189 1232.23 78.8295C1231.85 79.1402 1231.56 79.5473 1231.38 80.0511C1231.19 80.5549 1231.1 81.0985 1231.1 81.6818C1231.1 82.2652 1231.19 82.8068 1231.38 83.3068C1231.56 83.8068 1231.85 84.2102 1232.23 84.517C1232.62 84.8239 1233.11 84.9773 1233.71 84.9773ZM1239.71 86V77.2727H1241.01V78.5909H1241.1C1241.26 78.1591 1241.54 77.8087 1241.96 77.5398C1242.38 77.2708 1242.85 77.1364 1243.37 77.1364C1243.47 77.1364 1243.59 77.1383 1243.74 77.142C1243.89 77.1458 1244 77.1515 1244.08 77.1591V78.5227C1244.03 78.5114 1243.93 78.4943 1243.76 78.4716C1243.6 78.4451 1243.44 78.4318 1243.26 78.4318C1242.83 78.4318 1242.45 78.5208 1242.12 78.6989C1241.79 78.8731 1241.53 79.1155 1241.34 79.4261C1241.15 79.733 1241.05 80.0833 1241.05 80.4773V86H1239.71ZM1256.35 79.2273L1255.14 79.5682C1255.07 79.3674 1254.95 79.1723 1254.81 78.983C1254.66 78.7898 1254.47 78.6307 1254.22 78.5057C1253.97 78.3807 1253.65 78.3182 1253.26 78.3182C1252.72 78.3182 1252.28 78.4413 1251.92 78.6875C1251.57 78.9299 1251.39 79.2386 1251.39 79.6136C1251.39 79.947 1251.51 80.2102 1251.76 80.4034C1252 80.5966 1252.38 80.7576 1252.89 80.8864L1254.19 81.2045C1254.97 81.3939 1255.55 81.6837 1255.93 82.0739C1256.31 82.4602 1256.51 82.9583 1256.51 83.5682C1256.51 84.0682 1256.36 84.5152 1256.07 84.9091C1255.79 85.303 1255.39 85.6136 1254.88 85.8409C1254.37 86.0682 1253.77 86.1818 1253.1 86.1818C1252.21 86.1818 1251.47 85.9886 1250.89 85.6023C1250.3 85.2159 1249.93 84.6515 1249.78 83.9091L1251.05 83.5909C1251.17 84.0606 1251.4 84.4129 1251.74 84.6477C1252.08 84.8826 1252.52 85 1253.07 85C1253.7 85 1254.2 84.8674 1254.56 84.6023C1254.93 84.3333 1255.12 84.0114 1255.12 83.6364C1255.12 83.3333 1255.01 83.0795 1254.8 82.875C1254.59 82.6667 1254.26 82.5114 1253.82 82.4091L1252.37 82.0682C1251.57 81.8788 1250.98 81.5852 1250.61 81.1875C1250.24 80.786 1250.05 80.2841 1250.05 79.6818C1250.05 79.1894 1250.19 78.7538 1250.47 78.375C1250.75 77.9962 1251.13 77.6989 1251.61 77.483C1252.09 77.267 1252.64 77.1591 1253.26 77.1591C1254.12 77.1591 1254.8 77.3485 1255.29 77.7273C1255.79 78.1061 1256.14 78.6061 1256.35 79.2273ZM1258.52 86V77.2727H1259.87V86H1258.52ZM1259.21 75.8182C1258.94 75.8182 1258.72 75.7292 1258.53 75.5511C1258.34 75.3731 1258.25 75.1591 1258.25 74.9091C1258.25 74.6591 1258.34 74.4451 1258.53 74.267C1258.72 74.089 1258.94 74 1259.21 74C1259.47 74 1259.69 74.089 1259.88 74.267C1260.07 74.4451 1260.16 74.6591 1260.16 74.9091C1260.16 75.1591 1260.07 75.3731 1259.88 75.5511C1259.69 75.7292 1259.47 75.8182 1259.21 75.8182ZM1266.12 77.2727V78.4091H1261.59V77.2727H1266.12ZM1262.91 75.1818H1264.25V83.5C1264.25 83.8788 1264.31 84.1629 1264.42 84.3523C1264.53 84.5379 1264.68 84.6629 1264.85 84.7273C1265.03 84.7879 1265.21 84.8182 1265.41 84.8182C1265.56 84.8182 1265.68 84.8106 1265.78 84.7955C1265.87 84.7765 1265.95 84.7614 1266 84.75L1266.28 85.9545C1266.18 85.9886 1266.06 86.0227 1265.89 86.0568C1265.73 86.0947 1265.53 86.1136 1265.28 86.1136C1264.9 86.1136 1264.53 86.0322 1264.16 85.8693C1263.8 85.7064 1263.5 85.4583 1263.26 85.125C1263.03 84.7917 1262.91 84.3712 1262.91 83.8636V75.1818ZM1275.2 86.2045C1274.65 86.2045 1274.15 86.1004 1273.7 85.892C1273.25 85.6799 1272.89 85.375 1272.62 84.9773C1272.36 84.5758 1272.22 84.0909 1272.22 83.5227C1272.22 83.0227 1272.32 82.6174 1272.52 82.3068C1272.72 81.9924 1272.98 81.7462 1273.31 81.5682C1273.64 81.3902 1274 81.2576 1274.4 81.1705C1274.8 81.0795 1275.21 81.0076 1275.61 80.9545C1276.14 80.8864 1276.57 80.8352 1276.9 80.8011C1277.23 80.7633 1277.48 80.7008 1277.63 80.6136C1277.78 80.5265 1277.86 80.375 1277.86 80.1591V80.1136C1277.86 79.553 1277.71 79.1174 1277.4 78.8068C1277.1 78.4962 1276.64 78.3409 1276.02 78.3409C1275.38 78.3409 1274.88 78.4811 1274.51 78.7614C1274.15 79.0417 1273.89 79.3409 1273.75 79.6591L1272.47 79.2045C1272.7 78.6742 1273 78.2614 1273.38 77.9659C1273.77 77.6667 1274.18 77.4583 1274.63 77.3409C1275.09 77.2197 1275.54 77.1591 1275.97 77.1591C1276.25 77.1591 1276.58 77.1932 1276.94 77.2614C1277.31 77.3258 1277.66 77.4602 1278 77.6648C1278.35 77.8693 1278.63 78.178 1278.86 78.5909C1279.09 79.0038 1279.2 79.5568 1279.2 80.25V86H1277.86V84.8182H1277.79C1277.7 85.0076 1277.55 85.2102 1277.34 85.4261C1277.13 85.642 1276.84 85.8258 1276.49 85.9773C1276.14 86.1288 1275.71 86.2045 1275.2 86.2045ZM1275.41 85C1275.94 85 1276.38 84.8958 1276.75 84.6875C1277.11 84.4792 1277.39 84.2102 1277.58 83.8807C1277.77 83.5511 1277.86 83.2045 1277.86 82.8409V81.6136C1277.8 81.6818 1277.68 81.7443 1277.49 81.8011C1277.3 81.8542 1277.08 81.9015 1276.83 81.9432C1276.58 81.9811 1276.34 82.0152 1276.11 82.0455C1275.87 82.072 1275.69 82.0947 1275.54 82.1136C1275.19 82.1591 1274.87 82.233 1274.57 82.3352C1274.27 82.4337 1274.02 82.5833 1273.84 82.7841C1273.66 82.9811 1273.57 83.25 1273.57 83.5909C1273.57 84.0568 1273.74 84.4091 1274.08 84.6477C1274.43 84.8826 1274.87 85 1275.41 85ZM1281.65 86V77.2727H1282.94V78.6364H1283.06C1283.24 78.1705 1283.53 77.8087 1283.94 77.5511C1284.34 77.2898 1284.83 77.1591 1285.4 77.1591C1285.97 77.1591 1286.45 77.2898 1286.84 77.5511C1287.22 77.8087 1287.52 78.1705 1287.74 78.6364H1287.83C1288.05 78.1856 1288.39 77.8277 1288.84 77.5625C1289.28 77.2936 1289.82 77.1591 1290.44 77.1591C1291.22 77.1591 1291.86 77.4034 1292.36 77.892C1292.86 78.3769 1293.1 79.1326 1293.1 80.1591V86H1291.76V80.1591C1291.76 79.5152 1291.59 79.0549 1291.23 78.7784C1290.88 78.5019 1290.47 78.3636 1289.99 78.3636C1289.38 78.3636 1288.9 78.5492 1288.56 78.9205C1288.23 79.2879 1288.06 79.7538 1288.06 80.3182V86H1286.69V80.0227C1286.69 79.5265 1286.53 79.1269 1286.21 78.8239C1285.89 78.517 1285.47 78.3636 1284.97 78.3636C1284.62 78.3636 1284.29 78.4564 1283.99 78.642C1283.69 78.8277 1283.45 79.0852 1283.26 79.4148C1283.08 79.7405 1282.99 80.1174 1282.99 80.5455V86H1281.65ZM1299.21 86.1818C1298.37 86.1818 1297.65 85.9962 1297.04 85.625C1296.43 85.25 1295.96 84.7273 1295.63 84.0568C1295.31 83.3826 1295.15 82.5985 1295.15 81.7045C1295.15 80.8106 1295.31 80.0227 1295.63 79.3409C1295.96 78.6553 1296.42 78.1212 1297.01 77.7386C1297.6 77.3523 1298.29 77.1591 1299.08 77.1591C1299.53 77.1591 1299.98 77.2348 1300.42 77.3864C1300.87 77.5379 1301.27 77.7841 1301.63 78.125C1302 78.4621 1302.29 78.9091 1302.5 79.4659C1302.72 80.0227 1302.83 80.7083 1302.83 81.5227V82.0909H1296.1V80.9318H1301.46C1301.46 80.4394 1301.37 80 1301.17 79.6136C1300.98 79.2273 1300.7 78.9223 1300.34 78.6989C1299.98 78.4754 1299.56 78.3636 1299.08 78.3636C1298.54 78.3636 1298.08 78.4962 1297.69 78.7614C1297.31 79.0227 1297.01 79.3636 1296.8 79.7841C1296.59 80.2045 1296.49 80.6553 1296.49 81.1364V81.9091C1296.49 82.5682 1296.6 83.1269 1296.83 83.5852C1297.06 84.0398 1297.38 84.3864 1297.79 84.625C1298.2 84.8598 1298.67 84.9773 1299.21 84.9773C1299.57 84.9773 1299.88 84.928 1300.17 84.8295C1300.46 84.7273 1300.71 84.5758 1300.91 84.375C1301.12 84.1705 1301.28 83.9167 1301.4 83.6136L1302.69 83.9773C1302.56 84.4167 1302.33 84.803 1302 85.1364C1301.68 85.4659 1301.28 85.7235 1300.81 85.9091C1300.34 86.0909 1299.81 86.1818 1299.21 86.1818ZM1308.66 77.2727V78.4091H1304.14V77.2727H1308.66ZM1305.46 75.1818H1306.8V83.5C1306.8 83.8788 1306.85 84.1629 1306.96 84.3523C1307.08 84.5379 1307.22 84.6629 1307.4 84.7273C1307.57 84.7879 1307.76 84.8182 1307.96 84.8182C1308.11 84.8182 1308.23 84.8106 1308.32 84.7955C1308.42 84.7765 1308.49 84.7614 1308.55 84.75L1308.82 85.9545C1308.73 85.9886 1308.6 86.0227 1308.44 86.0568C1308.28 86.0947 1308.07 86.1136 1307.82 86.1136C1307.44 86.1136 1307.07 86.0322 1306.71 85.8693C1306.35 85.7064 1306.05 85.4583 1305.81 85.125C1305.58 84.7917 1305.46 84.3712 1305.46 83.8636V75.1818Z" fill="white"/>
<path d="M160 55C156.748 54.882 153.507 55.4228 150.47 56.5901C147.432 57.7574 144.663 59.527 142.327 61.7924C139.992 64.0578 138.139 66.7722 136.88 69.7724C135.62 72.7725 134.981 75.9964 135 79.25C134.958 82.628 135.637 85.976 136.99 89.0712C138.344 92.1663 140.341 94.9375 142.85 97.2C143.049 97.3774 143.211 97.5924 143.327 97.8327C143.443 98.0729 143.51 98.3337 143.525 98.6V103.05C143.539 103.378 143.632 103.698 143.797 103.982C143.962 104.266 144.193 104.505 144.471 104.68C144.749 104.855 145.065 104.959 145.393 104.985C145.72 105.01 146.049 104.955 146.35 104.825L151.35 102.65C151.777 102.489 152.248 102.489 152.675 102.65C155.039 103.288 157.477 103.607 159.925 103.6C166.37 103.61 172.555 101.059 177.119 96.5092C181.683 91.9591 184.253 85.7823 184.263 79.3375C184.272 72.8928 181.722 66.708 177.172 62.1438C172.622 57.5797 166.445 55.01 160 55ZM175 73.65L167.675 85.3C167.399 85.7386 167.035 86.1152 166.605 86.406C166.176 86.6967 165.692 86.8954 165.182 86.9893C164.672 87.0833 164.148 87.0706 163.644 86.9519C163.139 86.8333 162.664 86.6113 162.25 86.3L156.4 81.925C156.14 81.7303 155.825 81.625 155.5 81.625C155.175 81.625 154.86 81.7303 154.6 81.925L146.7 87.925C146.48 88.0947 146.207 88.1809 145.929 88.1684C145.652 88.1558 145.388 88.0453 145.184 87.8565C144.98 87.6677 144.85 87.4127 144.816 87.1369C144.782 86.8611 144.848 86.5823 145 86.35L152.325 74.7C152.601 74.2614 152.965 73.8848 153.395 73.5941C153.824 73.3033 154.308 73.1047 154.818 73.0107C155.328 72.9167 155.852 72.9295 156.356 73.0481C156.861 73.1668 157.336 73.3887 157.75 73.7L163.6 78.075C163.86 78.2698 164.175 78.375 164.5 78.375C164.825 78.375 165.14 78.2698 165.4 78.075L173.3 72.075C173.52 71.9053 173.793 71.8191 174.071 71.8317C174.348 71.8442 174.612 71.9547 174.816 72.1435C175.02 72.3324 175.15 72.5873 175.184 72.8631C175.218 73.1389 175.152 73.4177 175 73.65Z" fill="white"/>
<path d="M240 71.875C237.845 71.875 235.778 72.731 234.255 74.2548C232.731 75.7785 231.875 77.8451 231.875 80C231.875 82.1549 232.731 84.2215 234.255 85.7452C235.778 87.269 237.845 88.125 240 88.125C242.155 88.125 244.222 87.269 245.745 85.7452C247.269 84.2215 248.125 82.1549 248.125 80C248.125 77.8451 247.269 75.7785 245.745 74.2548C244.222 72.731 242.155 71.875 240 71.875Z" fill="white"/>
<path fill-rule="evenodd" clip-rule="evenodd" d="M226.925 57.705C235.615 56.7417 244.385 56.7417 253.075 57.705C257.823 58.235 261.65 61.9725 262.208 66.7375C263.238 75.5491 263.238 84.4508 262.208 93.2625C261.65 98.0275 257.823 101.765 253.078 102.297C244.387 103.261 235.616 103.261 226.925 102.297C222.178 101.765 218.35 98.0275 217.793 93.265C216.762 84.4525 216.762 75.5499 217.793 66.7375C218.35 61.9725 222.178 58.235 226.925 57.705ZM252.5 65C251.837 65 251.201 65.2634 250.732 65.7322C250.263 66.2011 250 66.8369 250 67.5C250 68.163 250.263 68.7989 250.732 69.2677C251.201 69.7366 251.837 70 252.5 70C253.163 70 253.799 69.7366 254.268 69.2677C254.737 68.7989 255 68.163 255 67.5C255 66.8369 254.737 66.2011 254.268 65.7322C253.799 65.2634 253.163 65 252.5 65ZM228.125 80C228.125 76.8505 229.376 73.8301 231.603 71.6031C233.83 69.3761 236.851 68.125 240 68.125C243.149 68.125 246.17 69.3761 248.397 71.6031C250.624 73.8301 251.875 76.8505 251.875 80C251.875 83.1494 250.624 86.1699 248.397 88.3969C246.17 90.6239 243.149 91.875 240 91.875C236.851 91.875 233.83 90.6239 231.603 88.3969C229.376 86.1699 228.125 83.1494 228.125 80Z" fill="white"/>
<path d="M311.2 82.85H313.025V91.875H314.775V82.85H316.6V81.325H311.2V82.85ZM320.425 90C320.125 90.35 319.1 91.05 319.1 90.05V84.075H317.55V90.6C317.55 92.575 319.525 92.05 320.45 91.025V91.875H322V84.075H320.45V90H320.425ZM326.2 84.025C325.3 84.025 324.725 84.7 324.725 84.7V81.3H323.15V91.875H324.725V91.275C324.725 91.275 325.25 91.975 326.2 91.975C327.025 91.975 327.65 91.25 327.65 90.25V85.925C327.65 84.75 327.1 84.025 326.2 84.025ZM326.025 90.05C326.025 90.625 325.625 90.9 325.1 90.675C324.958 90.6087 324.831 90.5153 324.725 90.4V85.55C324.825 85.45 324.95 85.375 325.05 85.3C325.6 85.025 326.025 85.45 326.025 86.025V90.05ZM331.8 89.65C331.8 90.25 331.475 90.65 331.1 90.675C330.7 90.7 330.3 90.375 330.3 89.65V88.175H333.275V86.175C333.283 85.8704 333.229 85.5675 333.117 85.284C333.006 85.0006 332.838 84.7425 332.625 84.525C332.195 84.1327 331.632 83.9182 331.05 83.925C330.5 83.925 329.925 84.1 329.475 84.45C329 84.825 328.7 85.4 328.7 86.175V89.675C328.7 90.375 328.925 90.925 329.275 91.325C329.7 91.775 330.275 92.025 330.875 92.05C331.6 92.075 332.375 91.775 332.825 91.15C333.1 90.775 333.275 90.275 333.275 89.675V89.275H331.8V89.65ZM330.3 86.175C330.3 85.75 330.55 85.25 331.025 85.25C331.5 85.25 331.8 85.7 331.8 86.175V86.975H330.3V86.175Z" fill="white"/>
<path d="M322.425 57.5C319.47 57.5002 316.544 58.0823 313.814 59.2133C311.084 60.3442 308.604 62.0018 306.515 64.0913C304.425 66.1809 302.768 68.6615 301.637 71.3915C300.507 74.1216 299.925 77.0476 299.925 80.0025C299.925 82.9574 300.507 85.8833 301.638 88.6133C302.769 91.3432 304.427 93.8236 306.516 95.9129C308.606 98.0022 311.086 99.6595 313.817 100.79C316.547 101.921 319.473 102.503 322.427 102.502C328.395 102.502 334.118 100.131 338.338 95.9112C342.557 91.6911 344.928 85.9677 344.927 80C344.927 74.0323 342.556 68.3091 338.336 64.0896C334.116 59.87 328.393 57.4997 322.425 57.5ZM326.375 65.925H328.375V72.625C328.375 73.05 328.575 73.05 328.65 73.05C328.95 73.05 329.4 72.725 329.625 72.5V65.9H331.625V74.75H329.625V73.975C329.35 74.225 329.075 74.425 328.8 74.575C328.425 74.775 328.075 74.85 327.725 74.85C327.533 74.8592 327.342 74.8258 327.165 74.7524C326.988 74.6789 326.829 74.5671 326.7 74.425C326.475 74.15 326.375 73.725 326.375 73.2V65.925ZM320 68.25C320 66.875 321.125 65.75 322.5 65.75C323.875 65.75 325 66.875 325 68.25V72.5C325 73.875 323.875 75 322.5 75C321.125 75 320 73.875 320 72.5V68.25ZM314.8 62.875L316 67.275L317.225 62.875H319.5L317.15 69.825V74.75H314.925V69.825L312.525 62.875H314.8ZM334.55 94.225C333.275 95.475 322.475 95.5 322.475 95.5C322.475 95.5 311.7 95.475 310.4 94.225C309.125 92.975 309.125 86.75 309.125 86.7C309.125 86.675 309.125 80.45 310.4 79.175C311.675 77.925 322.475 77.9 322.475 77.9C322.475 77.9 333.25 77.925 334.55 79.175C335.825 80.425 335.85 86.65 335.85 86.7C335.85 86.7 335.85 92.95 334.55 94.225Z" fill="white"/>
<path d="M322.45 73.375C322.875 73.375 323.075 73.125 323.1 72.725V67.975C323.1 67.65 322.775 67.375 322.475 67.375C322.175 67.375 321.85 67.625 321.85 67.975V72.725C321.85 73.1 322.025 73.35 322.45 73.375Z" fill="white"/>
</svg>
